<svg xmlns="http://www.w3.org/2000/svg" viewBox="0 0 151.17 151.18"><defs><style>.cls-1{fill:#0f8235;}.cls-2{fill:#fefefd;}.cls-3{fill:#68b42d;}</style></defs><g id="Layer_2" data-name="Layer 2"><g id="Layer_1-2" data-name="Layer 1"><path class="cls-1" d="M0,75.52a75.58,75.58,0,1,1,151.16.7c-.1,41.34-34.12,75-75.7,75A75.43,75.43,0,0,1,0,75.52Zm6,.09C5.91,114.14,36.65,145,75.44,145.19A69.61,69.61,0,1,0,6,75.61Z"/><path class="cls-2" d="M6,75.61a69.58,69.58,0,1,1,69.41,69.58C36.65,145,5.91,114.14,6,75.61Zm5.2.32a54.74,54.74,0,0,0,2.68,14.44c1.75,4.82,4.08,6.19,8.82,4.41,14.64-5.5,29.21-11.22,43.79-16.88,1-.4,2.4-.74,2.51-2.12s-1.21-1.89-2.26-2.29C51.89,67.7,37,61.85,22.07,56.23c-3.93-1.48-6.63.11-8,4.27A64.32,64.32,0,0,0,11.23,75.93ZM69.17,79.8c-.52.17-1,.27-1.46.47-14.6,6.5-29.21,13-43.76,19.55-3.64,1.65-4.59,4.5-2.78,8.25a45.21,45.21,0,0,0,20.88,21.4c5.11,2.56,7.54,1.79,9.91-3.4,3.54-7.72,6.92-15.5,10.36-23.26C65.15,96.41,68,90,70.74,83.6,71.47,81.92,72.37,79.94,69.17,79.8Zm2.22-10.51c-.25-.68-.4-1.15-.6-1.61-6.46-14.6-12.85-29.23-19.43-43.77-1.63-3.6-4.54-4.52-8.28-2.7A45.15,45.15,0,0,0,21.94,41.65c-2.9,5.66-2.13,8,3.62,10.57,7.1,3.25,14.25,6.4,21.4,9.57,6.68,3,13.36,6,20.09,8.82C68.68,71.29,71,72.56,71.39,69.29Zm34.3-48.75c-4-.13-5.38,1.85-6.45,4.26q-9.27,21-18.53,42c-.57,1.32-1.64,2.86-.15,4.1,1.15,1,2.55.13,3.75-.4q21.24-9.36,42.45-18.79c2.83-1.26,4.44-3.43,3.79-6.78C129,36.89,114.3,22.19,106.21,20.62,105.72,20.53,105.23,20.47,105.69,20.54Zm-30,119.39A54.69,54.69,0,0,0,91,137.05c3.94-1.39,5.38-4.12,4-7.75-5.66-15.06-11.55-30-17.37-45.05-.36-.94-.82-2-1.9-2.12-1.47-.17-1.91,1.17-2.31,2.2C67.67,99.18,61.86,114,56.27,128.93c-1.41,3.77-.24,6.78,4,8.19A53.11,53.11,0,0,0,75.72,139.93Zm55-34.69a5.89,5.89,0,0,0-3.85-5.63L83.61,80.46c-1-.47-2.18-1.17-3.21-.16s-.51,2.22-.05,3.26C86.86,98.3,93.34,113,100,127.72c1.2,2.64,3.67,4.05,6.64,2.81a43.33,43.33,0,0,0,23.74-23.65A8.09,8.09,0,0,0,130.74,105.24ZM95.31,21.08c.29-4.28-1.57-6-4.33-6.91a45.45,45.45,0,0,0-29.89-.29c-5.44,1.81-6.51,4-4.44,9.5C62,37.53,67.5,51.64,73,65.74c.52,1.33.76,3.24,2.61,3.25s2.07-2,2.58-3.26q7.23-18.6,14.35-37.25C93.57,25.7,94.62,22.91,95.31,21.08Zm44.22,54c.27-5-.9-10-2.53-14.94-1.27-3.85-4-5.38-7.79-4-14.92,5.65-29.78,11.46-44.65,17.21-1.08.42-2.39.77-2.42,2.18s1.3,1.83,2.36,2.24C99.38,83.59,114.24,89.39,129.18,95c3.66,1.37,6.45-.1,7.81-4A42.66,42.66,0,0,0,139.53,75.11Z"/><path class="cls-3" d="M11.23,75.93A64.32,64.32,0,0,1,14,60.5c1.42-4.16,4.12-5.75,8.05-4.27,15,5.62,29.82,11.47,44.7,17.26,1,.4,2.38.82,2.26,2.29s-1.46,1.72-2.51,2.12C51.94,83.56,37.37,89.28,22.73,94.78c-4.74,1.78-7.07.41-8.82-4.41A54.74,54.74,0,0,1,11.23,75.93Z"/><path class="cls-3" d="M69.17,79.8c3.2.14,2.3,2.12,1.57,3.8C68,90,65.15,96.41,62.32,102.81c-3.44,7.76-6.82,15.54-10.36,23.26-2.37,5.19-4.8,6-9.91,3.4a45.21,45.21,0,0,1-20.88-21.4c-1.81-3.75-.86-6.6,2.78-8.25,14.55-6.6,29.16-13,43.76-19.55C68.16,80.07,68.65,80,69.17,79.8Z"/><path class="cls-3" d="M71.39,69.29c-.44,3.27-2.71,2-4.34,1.32C60.32,67.76,53.64,64.76,47,61.79c-7.15-3.17-14.3-6.32-21.4-9.57C19.81,49.6,19,47.31,21.94,41.65A45.15,45.15,0,0,1,43.08,21.21c3.74-1.82,6.65-.9,8.28,2.7,6.58,14.54,13,29.17,19.43,43.77C71,68.14,71.14,68.61,71.39,69.29Z"/><path class="cls-3" d="M105.69,20.54c-.46-.07,0,0,.52.08C114.3,22.19,129,36.89,130.55,45c.65,3.35-1,5.52-3.79,6.78q-21.2,9.48-42.45,18.79c-1.2.53-2.6,1.35-3.75.4-1.49-1.24-.42-2.78.15-4.1q9.24-21,18.53-42C100.31,22.39,101.73,20.41,105.69,20.54Z"/><path class="cls-3" d="M75.72,139.93a53.11,53.11,0,0,1-15.42-2.81c-4.27-1.41-5.44-4.42-4-8.19,5.59-14.91,11.4-29.75,17.16-44.6.4-1,.84-2.37,2.31-2.2,1.08.12,1.54,1.18,1.9,2.12,5.82,15,11.71,30,17.37,45.05,1.37,3.63-.07,6.36-4,7.75A54.69,54.69,0,0,1,75.72,139.93Z"/><path class="cls-3" d="M130.74,105.24a8.09,8.09,0,0,1-.37,1.64,43.33,43.33,0,0,1-23.74,23.65c-3,1.24-5.44-.17-6.64-2.81C93.34,113,86.86,98.3,80.35,83.56c-.46-1-1-2.28.05-3.26s2.16-.31,3.21.16l43.28,19.15A5.89,5.89,0,0,1,130.74,105.24Z"/><path class="cls-3" d="M95.31,21.08c-.69,1.83-1.74,4.62-2.8,7.4Q85.35,47.11,78.16,65.73C77.65,67,77.49,69,75.58,69S73.49,67.07,73,65.74C67.5,51.64,62,37.53,56.65,23.38c-2.07-5.48-1-7.69,4.44-9.5A45.45,45.45,0,0,1,91,14.17C93.74,15.12,95.6,16.8,95.31,21.08Z"/><path class="cls-3" d="M139.53,75.11A42.66,42.66,0,0,1,137,91c-1.36,3.89-4.15,5.36-7.81,4-14.94-5.59-29.8-11.39-44.68-17.15-1.06-.41-2.38-.82-2.36-2.24s1.34-1.76,2.42-2.18c14.87-5.75,29.73-11.56,44.65-17.21,3.75-1.41,6.52.12,7.79,4C138.63,65.09,139.8,70.09,139.53,75.11Z"/></g></g></svg>